<svg xmlns="http://www.w3.org/2000/svg" viewBox="0 0 800 170" width="100%">
<defs>
  <filter id="glow" x="-20%" y="-20%" width="140%" height="140%">
    <feGaussianBlur in="SourceGraphic" stdDeviation="4" result="blur"/>
    <feMerge><feMergeNode in="blur"/><feMergeNode in="SourceGraphic"/></feMerge>
  </filter>
</defs>
  <rect width="800" height="170" fill="#0d1117"/>
  <line x1="0" y1="0" x2="800" y2="0" stroke="#161b22" stroke-width="1"/><line x1="0" y1="20" x2="800" y2="20" stroke="#161b22" stroke-width="1"/><line x1="0" y1="40" x2="800" y2="40" stroke="#161b22" stroke-width="1"/><line x1="0" y1="60" x2="800" y2="60" stroke="#161b22" stroke-width="1"/><line x1="0" y1="80" x2="800" y2="80" stroke="#161b22" stroke-width="1"/><line x1="0" y1="100" x2="800" y2="100" stroke="#161b22" stroke-width="1"/><line x1="0" y1="120" x2="800" y2="120" stroke="#161b22" stroke-width="1"/><line x1="0" y1="140" x2="800" y2="140" stroke="#161b22" stroke-width="1"/><line x1="0" y1="160" x2="800" y2="160" stroke="#161b22" stroke-width="1"/>
  <line x1="0" y1="0" x2="0" y2="170" stroke="#161b22" stroke-width="1"/><line x1="24" y1="0" x2="24" y2="170" stroke="#161b22" stroke-width="1"/><line x1="48" y1="0" x2="48" y2="170" stroke="#161b22" stroke-width="1"/><line x1="72" y1="0" x2="72" y2="170" stroke="#161b22" stroke-width="1"/><line x1="96" y1="0" x2="96" y2="170" stroke="#161b22" stroke-width="1"/><line x1="120" y1="0" x2="120" y2="170" stroke="#161b22" stroke-width="1"/><line x1="144" y1="0" x2="144" y2="170" stroke="#161b22" stroke-width="1"/><line x1="168" y1="0" x2="168" y2="170" stroke="#161b22" stroke-width="1"/><line x1="192" y1="0" x2="192" y2="170" stroke="#161b22" stroke-width="1"/><line x1="216" y1="0" x2="216" y2="170" stroke="#161b22" stroke-width="1"/><line x1="240" y1="0" x2="240" y2="170" stroke="#161b22" stroke-width="1"/><line x1="264" y1="0" x2="264" y2="170" stroke="#161b22" stroke-width="1"/><line x1="288" y1="0" x2="288" y2="170" stroke="#161b22" stroke-width="1"/><line x1="312" y1="0" x2="312" y2="170" stroke="#161b22" stroke-width="1"/><line x1="336" y1="0" x2="336" y2="170" stroke="#161b22" stroke-width="1"/><line x1="360" y1="0" x2="360" y2="170" stroke="#161b22" stroke-width="1"/><line x1="384" y1="0" x2="384" y2="170" stroke="#161b22" stroke-width="1"/><line x1="408" y1="0" x2="408" y2="170" stroke="#161b22" stroke-width="1"/><line x1="432" y1="0" x2="432" y2="170" stroke="#161b22" stroke-width="1"/><line x1="456" y1="0" x2="456" y2="170" stroke="#161b22" stroke-width="1"/><line x1="480" y1="0" x2="480" y2="170" stroke="#161b22" stroke-width="1"/><line x1="504" y1="0" x2="504" y2="170" stroke="#161b22" stroke-width="1"/><line x1="528" y1="0" x2="528" y2="170" stroke="#161b22" stroke-width="1"/><line x1="552" y1="0" x2="552" y2="170" stroke="#161b22" stroke-width="1"/><line x1="576" y1="0" x2="576" y2="170" stroke="#161b22" stroke-width="1"/><line x1="600" y1="0" x2="600" y2="170" stroke="#161b22" stroke-width="1"/><line x1="624" y1="0" x2="624" y2="170" stroke="#161b22" stroke-width="1"/><line x1="648" y1="0" x2="648" y2="170" stroke="#161b22" stroke-width="1"/><line x1="672" y1="0" x2="672" y2="170" stroke="#161b22" stroke-width="1"/><line x1="696" y1="0" x2="696" y2="170" stroke="#161b22" stroke-width="1"/><line x1="720" y1="0" x2="720" y2="170" stroke="#161b22" stroke-width="1"/><line x1="744" y1="0" x2="744" y2="170" stroke="#161b22" stroke-width="1"/><line x1="768" y1="0" x2="768" y2="170" stroke="#161b22" stroke-width="1"/><line x1="792" y1="0" x2="792" y2="170" stroke="#161b22" stroke-width="1"/>
  <rect x="632" y="88" width="4" height="4" fill="#f0f6fc"><animate attributeName="opacity" values="0;0.8;0;0.5;0" dur="1.61s" begin="1.06s" repeatCount="indefinite"/></rect><rect x="80" y="28" width="5" height="5" fill="#58a6ff"><animate attributeName="opacity" values="0;0.6;0.2;0.8;0" dur="2.23s" begin="0.32s" repeatCount="indefinite"/></rect><rect x="8" y="128" width="3" height="3" fill="#f0f6fc"><animate attributeName="opacity" values="0;0.6;0.2;0.8;0" dur="1.67s" begin="0.77s" repeatCount="indefinite"/></rect><rect x="704" y="68" width="4" height="4" fill="#22c55e"><animate attributeName="opacity" values="0;0.6;0.2;0.8;0" dur="3.67s" begin="3.42s" repeatCount="indefinite"/></rect><rect x="176" y="148" width="3" height="3" fill="#58a6ff"><animate attributeName="opacity" values="0;0.6;0.2;0.8;0" dur="2.41s" begin="2.54s" repeatCount="indefinite"/></rect><rect x="152" y="168" width="3" height="3" fill="#22c55e"><animate attributeName="opacity" values="0;1;0;0" dur="3.25s" begin="2.68s" repeatCount="indefinite"/></rect><rect x="152" y="68" width="4" height="4" fill="#f0f6fc"><animate attributeName="opacity" values="0;0.6;0.2;0.8;0" dur="1.91s" begin="2.92s" repeatCount="indefinite"/></rect><rect x="80" y="168" width="3" height="3" fill="#1f6feb"><animate attributeName="opacity" values="0;0.8;0;0.5;0" dur="2.05s" begin="2.75s" repeatCount="indefinite"/></rect><rect x="704" y="48" width="4" height="4" fill="#22c55e"><animate attributeName="opacity" values="0;0.6;0.2;0.8;0" dur="3.51s" begin="3.29s" repeatCount="indefinite"/></rect><rect x="56" y="168" width="3" height="3" fill="#22c55e"><animate attributeName="opacity" values="0;1;0;0" dur="3.86s" begin="0.84s" repeatCount="indefinite"/></rect><rect x="656" y="108" width="4" height="4" fill="#1f6feb"><animate attributeName="opacity" values="0;1;0;0" dur="3.71s" begin="2.0s" repeatCount="indefinite"/></rect><rect x="776" y="108" width="5" height="5" fill="#22c55e"><animate attributeName="opacity" values="0;0.6;0.2;0.8;0" dur="3.36s" begin="0.56s" repeatCount="indefinite"/></rect><rect x="560" y="148" width="4" height="4" fill="#1f6feb"><animate attributeName="opacity" values="0;0.6;0.2;0.8;0" dur="3.74s" begin="2.34s" repeatCount="indefinite"/></rect><rect x="56" y="88" width="4" height="4" fill="#22c55e"><animate attributeName="opacity" values="0;0.8;0;0.5;0" dur="1.85s" begin="3.99s" repeatCount="indefinite"/></rect><rect x="608" y="28" width="3" height="3" fill="#22c55e"><animate attributeName="opacity" values="0;0.4;0;0.4;0" dur="1.88s" begin="3.44s" repeatCount="indefinite"/></rect><rect x="368" y="168" width="4" height="4" fill="#f0f6fc"><animate attributeName="opacity" values="0;0.6;0.2;0.8;0" dur="2.45s" begin="0.25s" repeatCount="indefinite"/></rect><rect x="8" y="168" width="3" height="3" fill="#f0f6fc"><animate attributeName="opacity" values="0;0.6;0.2;0.8;0" dur="1.53s" begin="3.44s" repeatCount="indefinite"/></rect><rect x="8" y="148" width="3" height="3" fill="#1f6feb"><animate attributeName="opacity" values="0;0.4;0;0.4;0" dur="2.23s" begin="1.36s" repeatCount="indefinite"/></rect><rect x="56" y="108" width="3" height="3" fill="#22c55e"><animate attributeName="opacity" values="0;1;0;0" dur="3.69s" begin="3.82s" repeatCount="indefinite"/></rect><rect x="152" y="28" width="3" height="3" fill="#f0f6fc"><animate attributeName="opacity" values="0;1;0;0" dur="3.68s" begin="3.65s" repeatCount="indefinite"/></rect><rect x="152" y="108" width="5" height="5" fill="#22c55e"><animate attributeName="opacity" values="0;0.8;0;0.5;0" dur="1.9s" begin="1.5s" repeatCount="indefinite"/></rect><rect x="512" y="8" width="3" height="3" fill="#f0f6fc"><animate attributeName="opacity" values="0;0.6;0.2;0.8;0" dur="1.55s" begin="1.3s" repeatCount="indefinite"/></rect><rect x="608" y="88" width="3" height="3" fill="#22c55e"><animate attributeName="opacity" values="0;0.8;0;0.5;0" dur="3.7s" begin="0.23s" repeatCount="indefinite"/></rect><rect x="776" y="128" width="5" height="5" fill="#1f6feb"><animate attributeName="opacity" values="0;1;0;0" dur="1.67s" begin="1.94s" repeatCount="indefinite"/></rect><rect x="584" y="48" width="3" height="3" fill="#22c55e"><animate attributeName="opacity" values="0;0.6;0.2;0.8;0" dur="3.87s" begin="2.64s" repeatCount="indefinite"/></rect><rect x="128" y="108" width="3" height="3" fill="#f0f6fc"><animate attributeName="opacity" values="0;1;0;0" dur="2.56s" begin="3.49s" repeatCount="indefinite"/></rect><rect x="680" y="128" width="3" height="3" fill="#1f6feb"><animate attributeName="opacity" values="0;0.4;0;0.4;0" dur="3.99s" begin="1.25s" repeatCount="indefinite"/></rect><rect x="632" y="148" width="3" height="3" fill="#f0f6fc"><animate attributeName="opacity" values="0;0.6;0.2;0.8;0" dur="2.12s" begin="1.81s" repeatCount="indefinite"/></rect><rect x="680" y="48" width="3" height="3" fill="#22c55e"><animate attributeName="opacity" values="0;0.8;0;0.5;0" dur="2.08s" begin="2.35s" repeatCount="indefinite"/></rect><rect x="752" y="108" width="3" height="3" fill="#22c55e"><animate attributeName="opacity" values="0;0.8;0;0.5;0" dur="1.65s" begin="2.83s" repeatCount="indefinite"/></rect><rect x="368" y="148" width="4" height="4" fill="#22c55e"><animate attributeName="opacity" values="0;1;0;0" dur="2.1s" begin="0.28s" repeatCount="indefinite"/></rect><rect x="152" y="48" width="5" height="5" fill="#f0f6fc"><animate attributeName="opacity" values="0;0.4;0;0.4;0" dur="3.84s" begin="0.53s" repeatCount="indefinite"/></rect><rect x="416" y="28" width="3" height="3" fill="#22c55e"><animate attributeName="opacity" values="0;0.8;0;0.5;0" dur="3.52s" begin="3.14s" repeatCount="indefinite"/></rect><rect x="608" y="8" width="4" height="4" fill="#22c55e"><animate attributeName="opacity" values="0;0.4;0;0.4;0" dur="2.39s" begin="2.64s" repeatCount="indefinite"/></rect><rect x="176" y="168" width="3" height="3" fill="#1f6feb"><animate attributeName="opacity" values="0;0.8;0;0.5;0" dur="3.13s" begin="0.22s" repeatCount="indefinite"/></rect><rect x="8" y="28" width="3" height="3" fill="#58a6ff"><animate attributeName="opacity" values="0;1;0;0" dur="3.5s" begin="2.91s" repeatCount="indefinite"/></rect><rect x="104" y="88" width="4" height="4" fill="#22c55e"><animate attributeName="opacity" values="0;1;0;0" dur="2.62s" begin="0.76s" repeatCount="indefinite"/></rect><rect x="680" y="28" width="3" height="3" fill="#22c55e"><animate attributeName="opacity" values="0;0.4;0;0.4;0" dur="3.69s" begin="1.85s" repeatCount="indefinite"/></rect><rect x="752" y="48" width="5" height="5" fill="#f0f6fc"><animate attributeName="opacity" values="0;0.8;0;0.5;0" dur="3.13s" begin="0.39s" repeatCount="indefinite"/></rect><rect x="248" y="148" width="3" height="3" fill="#22c55e"><animate attributeName="opacity" values="0;0.4;0;0.4;0" dur="3.62s" begin="3.71s" repeatCount="indefinite"/></rect><rect x="704" y="28" width="3" height="3" fill="#58a6ff"><animate attributeName="opacity" values="0;1;0;0" dur="3.66s" begin="1.93s" repeatCount="indefinite"/></rect><rect x="104" y="68" width="4" height="4" fill="#58a6ff"><animate attributeName="opacity" values="0;0.6;0.2;0.8;0" dur="2.48s" begin="0.01s" repeatCount="indefinite"/></rect><rect x="728" y="148" width="5" height="5" fill="#58a6ff"><animate attributeName="opacity" values="0;0.4;0;0.4;0" dur="3.33s" begin="2.79s" repeatCount="indefinite"/></rect><rect x="248" y="28" width="3" height="3" fill="#22c55e"><animate attributeName="opacity" values="0;0.8;0;0.5;0" dur="2.04s" begin="0.76s" repeatCount="indefinite"/></rect><rect x="752" y="168" width="4" height="4" fill="#1f6feb"><animate attributeName="opacity" values="0;1;0;0" dur="1.63s" begin="1.25s" repeatCount="indefinite"/></rect><rect x="728" y="168" width="3" height="3" fill="#22c55e"><animate attributeName="opacity" values="0;0.8;0;0.5;0" dur="1.7s" begin="3.84s" repeatCount="indefinite"/></rect><rect x="320" y="8" width="4" height="4" fill="#f0f6fc"><animate attributeName="opacity" values="0;0.8;0;0.5;0" dur="3.65s" begin="0.27s" repeatCount="indefinite"/></rect><rect x="56" y="128" width="5" height="5" fill="#f0f6fc"><animate attributeName="opacity" values="0;0.8;0;0.5;0" dur="2.99s" begin="0.98s" repeatCount="indefinite"/></rect><rect x="272" y="148" width="3" height="3" fill="#58a6ff"><animate attributeName="opacity" values="0;0.6;0.2;0.8;0" dur="2.91s" begin="2.63s" repeatCount="indefinite"/></rect><rect x="248" y="168" width="3" height="3" fill="#22c55e"><animate attributeName="opacity" values="0;0.4;0;0.4;0" dur="2.29s" begin="2.68s" repeatCount="indefinite"/></rect>
  <rect width="800" height="2" fill="#ffffff" opacity="0.04">
  <animateTransform attributeName="transform" type="translate"
    values="0,0;0,172" dur="5s" repeatCount="indefinite"/>
</rect>
  <polygon points="90,40 116,46 90,52 64,46" fill="#22c55e" opacity="0.95"/><polygon points="64,46 90,52 90,64 64,58" fill="#15803d" opacity="0.95"/><polygon points="90,52 116,46 116,58 90,64" fill="#166534" opacity="0.95"/><polygon points="116,52 138,57 116,62 94,57" fill="#1d4ed8" opacity="0.85"/><polygon points="94,57 116,62 116,72 94,67" fill="#1e3a8a" opacity="0.85"/><polygon points="116,62 138,57 138,67 116,72" fill="#1e2a6a" opacity="0.85"/><polygon points="68,64 86,68 68,73 50,68" fill="#7c3aed" opacity="0.75"/><polygon points="50,68 68,73 68,82 50,77" fill="#5b21b6" opacity="0.75"/><polygon points="68,73 86,68 86,77 68,82" fill="#4c1d95" opacity="0.75"/><polygon points="94,78 108,81 94,85 80,81" fill="#22c55e" opacity="0.55"/><polygon points="80,81 94,85 94,92 80,88" fill="#15803d" opacity="0.55"/><polygon points="94,85 108,81 108,88 94,92" fill="#166534" opacity="0.55"/><polygon points="710,40 736,46 710,52 684,46" fill="#22c55e" opacity="0.95"/><polygon points="684,46 710,52 710,64 684,58" fill="#15803d" opacity="0.95"/><polygon points="710,52 736,46 736,58 710,64" fill="#166534" opacity="0.95"/><polygon points="684,52 706,57 684,62 662,57" fill="#1d4ed8" opacity="0.85"/><polygon points="662,57 684,62 684,72 662,67" fill="#1e3a8a" opacity="0.85"/><polygon points="684,62 706,57 706,67 684,72" fill="#1e2a6a" opacity="0.85"/><polygon points="732,64 750,68 732,73 714,68" fill="#7c3aed" opacity="0.75"/><polygon points="714,68 732,73 732,82 714,77" fill="#5b21b6" opacity="0.75"/><polygon points="732,73 750,68 750,77 732,82" fill="#4c1d95" opacity="0.75"/><polygon points="706,78 720,81 706,85 692,81" fill="#22c55e" opacity="0.55"/><polygon points="692,81 706,85 706,92 692,88" fill="#15803d" opacity="0.55"/><polygon points="706,85 720,81 720,88 706,92" fill="#166534" opacity="0.55"/>
  
  <rect x="0"   y="0"   width="16" height="4"  fill="#22c55e"/>
  <rect x="0"   y="0"   width="4"  height="16" fill="#22c55e"/>
  <rect x="784" y="0"   width="16" height="4"  fill="#22c55e"/>
  <rect x="796" y="0"   width="4"  height="16" fill="#22c55e"/>
  <rect x="0"   y="166" width="16" height="4"  fill="#22c55e"/>
  <rect x="0"   y="154" width="4"  height="16" fill="#22c55e"/>
  <rect x="784" y="166" width="16" height="4"  fill="#22c55e"/>
  <rect x="796" y="154" width="4"  height="16" fill="#22c55e"/>

  
  <text x="400" y="82" font-family="'Courier New',Courier,monospace" font-size="30"
        font-weight="bold" fill="#22c55e" text-anchor="middle" letter-spacing="4"
        filter="url(#glow)" opacity="0.4">MUSTHAFA DARMA</text>
  <text x="400" y="82" font-family="'Courier New',Courier,monospace" font-size="30"
        font-weight="bold" fill="#ffffff" text-anchor="middle" letter-spacing="4">MUSTHAFA DARMA</text>
  <text x="400" y="112" font-family="'Courier New',Courier,monospace" font-size="11"
        fill="#8b949e" text-anchor="middle" letter-spacing="8">FULL STACK DEVELOPER</text>
  <text x="400" y="132" font-family="'Courier New',Courier,monospace" font-size="9"
        fill="#22c55e" text-anchor="middle" letter-spacing="3" opacity="0.7">&#x25BA; BUILDING AI-POWERED WEB EXPERIENCES</text>

</svg>